# xmcd
#
# Track frame offsets: 
#        150
#        19186
#        37159
#        58790
#        76691
#        95405
#        112610
#        128769
#        147407
#        171470
#        190419
#
# Disc length: 2775 seconds
#
# Revision: 2
# Processed by: cddbd v1.5.2PL0 Copyright (c) Steve Scherf et al.
# Submitted via: ExactAudioCopy v1.1
#
DISCID=920ad50b
DTITLE=Wolf Maahn - Deserteure (Remastered)
DYEAR=2008
DGENRE=Rock
TTITLE0=Der Königsdorf-Tango
TTITLE1=Blinder Passagier
TTITLE2=Herren
TTITLE3=Ich bin German
TTITLE4=Oh, Julia
TTITLE5=Deserteure
TTITLE6=In der Tat
TTITLE7=Die Gangsterbraut und der Polizist
TTITLE8=Ich bin erregt (unentwegt)
TTITLE9=Sag' mir, wo die Blumen sind
TTITLE10=Der Elefant
EXTD=digital remastert 2007
EXTT0=
EXTT1=
EXTT2=
EXTT3=
EXTT4=
EXTT5=
EXTT6=
EXTT7=
EXTT8=
EXTT9=
EXTT10=
PLAYORDER=
